<?xml version="1.0" encoding="UTF-8" standalone="no"?>
<!-- Created with Inkscape (http://www.inkscape.org/) -->

<svg
   xmlns:dc="http://purl.org/dc/elements/1.1/"
   xmlns:cc="http://creativecommons.org/ns#"
   xmlns:rdf="http://www.w3.org/1999/02/22-rdf-syntax-ns#"
   xmlns:svg="http://www.w3.org/2000/svg"
   xmlns="http://www.w3.org/2000/svg"
   xmlns:sodipodi="http://sodipodi.sourceforge.net/DTD/sodipodi-0.dtd"
   xmlns:inkscape="http://www.inkscape.org/namespaces/inkscape"
   width="744.09448819"
   height="1052.3622047"
   id="svg2"
   version="1.1"
   inkscape:version="0.48.4 r9939"
   sodipodi:docname="New document 1">
  <defs
     id="defs4" />
  <sodipodi:namedview
     id="base"
     pagecolor="#ffffff"
     bordercolor="#666666"
     borderopacity="1.0"
     inkscape:pageopacity="0.0"
     inkscape:pageshadow="2"
     inkscape:zoom="0.7"
     inkscape:cx="179.47695"
     inkscape:cy="485.1141"
     inkscape:document-units="px"
     inkscape:current-layer="layer12"
     showgrid="false"
     inkscape:window-width="1920"
     inkscape:window-height="1056"
     inkscape:window-x="0"
     inkscape:window-y="24"
     inkscape:window-maximized="1" />
  <metadata
     id="metadata7">
    <rdf:RDF>
      <cc:Work
         rdf:about="">
        <dc:format>image/svg+xml</dc:format>
        <dc:type
           rdf:resource="http://purl.org/dc/dcmitype/StillImage" />
        <dc:title></dc:title>
      </cc:Work>
    </rdf:RDF>
  </metadata>
  <g
     inkscape:label="Layer 1"
     inkscape:groupmode="layer"
     id="layer1"
     style="display:inline"
     sodipodi:insensitive="true">
    <path
       sodipodi:type="arc"
       style="fill:#259e37;fill-opacity:1;stroke:none"
       id="path2985"
       sodipodi:cx="421.42856"
       sodipodi:cy="478.07648"
       sodipodi:rx="214.28572"
       sodipodi:ry="211.42857"
       d="m 635.71428,478.07648 a 214.28572,211.42857 0 1 1 -428.57144,0 214.28572,211.42857 0 1 1 428.57144,0 z"
       transform="matrix(0.9333333,0,0,0.94594594,-21.904751,127.27055)" />
    <rect
       style="fill:#a042e0;fill-opacity:0;stroke:none"
       id="rect3755"
       width="177.14285"
       height="100"
       x="282.85712"
       y="176.64789"
       ry="41.821785" />
  </g>
  <g
     inkscape:groupmode="layer"
     id="layer2"
     inkscape:label="Layer 2"
     style="display:inline"
     sodipodi:insensitive="true">
    <path
       transform="matrix(0.65996631,-0.65996631,0.66888479,0.66888478,-153.81682,513.10579)"
       d="m 635.71428,478.07648 a 214.28572,211.42857 0 1 1 -428.57144,0 214.28572,211.42857 0 1 1 428.57144,0 z"
       sodipodi:ry="211.42857"
       sodipodi:rx="214.28572"
       sodipodi:cy="478.07648"
       sodipodi:cx="421.42856"
       id="path4375"
       style="fill:#f9ef5a;fill-opacity:1;stroke:none;display:inline"
       sodipodi:type="arc" />
    <rect
       ry="41.821785"
       y="303.43301"
       x="-166.82362"
       height="100"
       width="177.14285"
       id="rect4377"
       style="fill:#a042e0;fill-opacity:0;stroke:none;display:inline"
       transform="matrix(0.70710678,-0.70710678,0.70710678,0.70710678,0,0)" />
  </g>
  <g
     inkscape:groupmode="layer"
     id="layer3"
     inkscape:label="Layer 3"
     style="display:inline"
     sodipodi:insensitive="true">
    <path
       transform="matrix(0,-0.9333333,0.94594594,0,13.958487,882.95242)"
       d="m 635.71428,478.07648 a 214.28572,211.42857 0 1 1 -428.57144,0 214.28572,211.42857 0 1 1 428.57144,0 z"
       sodipodi:ry="211.42857"
       sodipodi:rx="214.28572"
       sodipodi:cy="478.07648"
       sodipodi:cx="421.42856"
       id="path6176"
       style="fill:#2e73e8;fill-opacity:1;stroke:none;display:inline"
       sodipodi:type="arc" />
    <rect
       ry="41.821785"
       y="63.335815"
       x="-578.19055"
       height="100"
       width="177.14285"
       id="rect6178"
       style="fill:#a042e0;fill-opacity:0;stroke:none;display:inline"
       transform="matrix(0,-1,1,0,0,0)" />
    <path
       sodipodi:type="arc"
       style="fill:#2e73e8;fill-opacity:1;stroke:none;display:inline"
       id="path6180"
       sodipodi:cx="421.42856"
       sodipodi:cy="478.07648"
       sodipodi:rx="214.28572"
       sodipodi:ry="211.42857"
       d="m 635.71428,478.07648 a 214.28572,211.42857 0 1 1 -428.57144,0 214.28572,211.42857 0 1 1 428.57144,0 z"
       transform="matrix(0,-0.9333333,0.94594594,0,13.958487,882.95242)" />
    <rect
       transform="matrix(0,-1,1,0,0,0)"
       style="fill:#a042e0;fill-opacity:0;stroke:none;display:inline"
       id="rect6182"
       width="177.14285"
       height="100"
       x="-578.19055"
       y="63.335815"
       ry="41.821785" />
  </g>
  <g
     inkscape:groupmode="layer"
     id="layer6"
     inkscape:label="Layer 4"
     style="display:inline"
     sodipodi:insensitive="true">
    <path
       sodipodi:type="arc"
       style="fill:#2e73e8;fill-opacity:1;stroke:none;display:inline"
       id="path4985"
       sodipodi:cx="421.42856"
       sodipodi:cy="478.07648"
       sodipodi:rx="214.28572"
       sodipodi:ry="211.42857"
       d="m 635.71428,478.07648 a 214.28572,211.42857 0 1 1 -428.57144,0 214.28572,211.42857 0 1 1 428.57144,0 z"
       transform="matrix(-0.65996631,-0.65996631,0.66888479,-0.66888479,394.83581,1015.805)" />
    <rect
       transform="matrix(-0.70710678,-0.70710678,0.70710678,-0.70710678,0,0)"
       style="fill:#a042e0;fill-opacity:0;stroke:none;display:inline"
       id="rect4987"
       width="177.14285"
       height="100"
       x="-692.71179"
       y="-389.7142"
       ry="41.821785" />
    <path
       transform="matrix(-0.65996631,-0.65996631,0.66888479,-0.66888479,394.83581,1015.805)"
       d="m 635.71428,478.07648 a 214.28572,211.42857 0 1 1 -428.57144,0 214.28572,211.42857 0 1 1 428.57144,0 z"
       sodipodi:ry="211.42857"
       sodipodi:rx="214.28572"
       sodipodi:cy="478.07648"
       sodipodi:cx="421.42856"
       id="path6160"
       style="fill:#e60000;fill-opacity:1;stroke:none;display:inline"
       sodipodi:type="arc" />
    <rect
       ry="41.821785"
       y="-389.7142"
       x="-692.71179"
       height="100"
       width="177.14285"
       id="rect6162"
       style="fill:#a042e0;fill-opacity:0;stroke:none;display:inline"
       transform="matrix(-0.70710678,-0.70710678,0.70710678,-0.70710678,0,0)" />
  </g>
  <g
     inkscape:groupmode="layer"
     id="layer9"
     inkscape:label="Layer 5"
     style="display:inline"
     sodipodi:insensitive="true">
    <path
       transform="matrix(-0.93333331,0,0,-0.94594594,764.71486,843.16593)"
       d="m 635.71428,478.07648 a 214.28572,211.42857 0 1 1 -428.57144,0 214.28572,211.42857 0 1 1 428.57144,0 z"
       sodipodi:ry="211.42857"
       sodipodi:rx="214.28572"
       sodipodi:cy="478.07648"
       sodipodi:cx="421.42856"
       id="path6199"
       style="fill:#2e73e8;fill-opacity:1;stroke:none;display:inline"
       sodipodi:type="arc" />
    <rect
       ry="41.821785"
       y="-793.78864"
       x="-459.95297"
       height="100"
       width="177.14285"
       id="rect6201"
       style="fill:#a042e0;fill-opacity:0;stroke:none;display:inline"
       transform="scale(-1,-1)" />
    <path
       sodipodi:type="arc"
       style="fill:#259e37;fill-opacity:1;stroke:none;display:inline"
       id="path6203"
       sodipodi:cx="421.42856"
       sodipodi:cy="478.07648"
       sodipodi:rx="214.28572"
       sodipodi:ry="211.42857"
       d="m 635.71428,478.07648 a 214.28572,211.42857 0 1 1 -428.57144,0 214.28572,211.42857 0 1 1 428.57144,0 z"
       transform="matrix(-0.93333331,0,0,-0.94594594,764.71486,843.16593)" />
    <rect
       transform="scale(-1,-1)"
       style="fill:#a042e0;fill-opacity:0;stroke:none;display:inline"
       id="rect6205"
       width="177.14285"
       height="100"
       x="-459.95297"
       y="-793.78864"
       ry="41.821785" />
  </g>
  <g
     inkscape:groupmode="layer"
     id="layer10"
     inkscape:label="Layer 6"
     style="display:inline"
     sodipodi:insensitive="true">
    <path
       sodipodi:type="arc"
       style="fill:#2e73e8;fill-opacity:1;stroke:none;display:inline"
       id="path6220"
       sodipodi:cx="421.42856"
       sodipodi:cy="478.07648"
       sodipodi:rx="214.28572"
       sodipodi:ry="211.42857"
       d="m 635.71428,478.07648 a 214.28572,211.42857 0 1 1 -428.57144,0 214.28572,211.42857 0 1 1 428.57144,0 z"
       transform="matrix(-0.65996631,0.65996631,-0.66888479,-0.66888479,897.56743,462.28861)" />
    <rect
       transform="matrix(-0.70710678,0.70710678,-0.70710678,-0.70710678,0,0)"
       style="fill:#a042e0;fill-opacity:0;stroke:none;display:inline"
       id="rect6222"
       width="177.14285"
       height="100"
       x="-3.0267186"
       y="-912.18616"
       ry="41.821785" />
    <path
       transform="matrix(-0.65996631,0.65996631,-0.66888479,-0.66888479,897.56743,462.28861)"
       d="m 635.71428,478.07648 a 214.28572,211.42857 0 1 1 -428.57144,0 214.28572,211.42857 0 1 1 428.57144,0 z"
       sodipodi:ry="211.42857"
       sodipodi:rx="214.28572"
       sodipodi:cy="478.07648"
       sodipodi:cx="421.42856"
       id="path6224"
       style="fill:#f9ef5a;fill-opacity:1;stroke:none;display:inline"
       sodipodi:type="arc" />
    <rect
       ry="41.821785"
       y="-912.18616"
       x="-3.0267186"
       height="100"
       width="177.14285"
       id="rect6226"
       style="fill:#a042e0;fill-opacity:0;stroke:none;display:inline"
       transform="matrix(-0.70710678,0.70710678,-0.70710678,-0.70710678,0,0)" />
  </g>
  <g
     inkscape:groupmode="layer"
     id="layer11"
     inkscape:label="Layer 7"
     sodipodi:insensitive="true">
    <path
       transform="matrix(0,0.93333331,-0.94594594,0,724.92836,92.409581)"
       d="m 635.71428,478.07648 a 214.28572,211.42857 0 1 1 -428.57144,0 214.28572,211.42857 0 1 1 428.57144,0 z"
       sodipodi:ry="211.42857"
       sodipodi:rx="214.28572"
       sodipodi:cy="478.07648"
       sodipodi:cx="421.42856"
       id="path6241"
       style="fill:#2e73e8;fill-opacity:1;stroke:none;display:inline"
       sodipodi:type="arc" />
    <rect
       ry="41.821785"
       y="-675.55109"
       x="397.17148"
       height="100"
       width="177.14285"
       id="rect6243"
       style="fill:#a042e0;fill-opacity:0;stroke:none;display:inline"
       transform="matrix(0,1,-1,0,0,0)" />
    <path
       sodipodi:type="arc"
       style="fill:#2e73e8;fill-opacity:1;stroke:none;display:inline"
       id="path6245"
       sodipodi:cx="421.42856"
       sodipodi:cy="478.07648"
       sodipodi:rx="214.28572"
       sodipodi:ry="211.42857"
       d="m 635.71428,478.07648 a 214.28572,211.42857 0 1 1 -428.57144,0 214.28572,211.42857 0 1 1 428.57144,0 z"
       transform="matrix(0,0.93333331,-0.94594594,0,724.92836,92.409581)" />
    <rect
       transform="matrix(0,1,-1,0,0,0)"
       style="fill:#a042e0;fill-opacity:0;stroke:none;display:inline"
       id="rect6247"
       width="177.14285"
       height="100"
       x="397.17148"
       y="-675.55109"
       ry="41.821785" />
  </g>
  <g
     inkscape:groupmode="layer"
     id="layer12"
     inkscape:label="Layer 8"
     sodipodi:insensitive="true">
    <path
       sodipodi:type="arc"
       style="fill:#2e73e8;fill-opacity:1;stroke:none;display:inline"
       id="path6254"
       sodipodi:cx="421.42856"
       sodipodi:cy="478.07648"
       sodipodi:rx="214.28572"
       sodipodi:ry="211.42857"
       d="m 635.71428,478.07648 a 214.28572,211.42857 0 1 1 -428.57144,0 214.28572,211.42857 0 1 1 428.57144,0 z"
       transform="matrix(0.65996631,0.65996631,-0.66888479,0.66888479,344.05104,-40.442982)" />
    <rect
       transform="matrix(0.70710678,0.70710678,-0.70710678,0.70710678,0,0)"
       style="fill:#a042e0;fill-opacity:0;stroke:none;display:inline"
       id="rect6256"
       width="177.14285"
       height="100"
       x="519.44519"
       y="-222.50105"
       ry="41.821785" />
    <path
       transform="matrix(0.65996631,0.65996631,-0.66888479,0.66888479,344.05104,-40.442982)"
       d="m 635.71428,478.07648 a 214.28572,211.42857 0 1 1 -428.57144,0 214.28572,211.42857 0 1 1 428.57144,0 z"
       sodipodi:ry="211.42857"
       sodipodi:rx="214.28572"
       sodipodi:cy="478.07648"
       sodipodi:cx="421.42856"
       id="path6258"
       style="fill:#e60000;fill-opacity:1;stroke:none;display:inline"
       sodipodi:type="arc" />
    <rect
       ry="41.821785"
       y="-222.50105"
       x="519.44519"
       height="100"
       width="177.14285"
       id="rect6260"
       style="fill:#a042e0;fill-opacity:0;stroke:none;display:inline"
       transform="matrix(0.70710678,0.70710678,-0.70710678,0.70710678,0,0)" />
  </g>
</svg>
